<?xml version="1.0" encoding="UTF-8"?>
<!DOCTYPE svg PUBLIC "-//W3C//DTD SVG 1.1//EN" "http://www.w3.org/Graphics/SVG/1.1/DTD/svg11.dtd">
<svg version="1.1" xmlns="http://www.w3.org/2000/svg" xmlns:xlink="http://www.w3.org/1999/xlink" x="0" y="0" width="259" height="259" viewBox="0, 0, 259, 259">
  <g id="Layer_3">
    <g>
      <path d="M63.279,102.248 C67.644,102.327 65.774,102.293 68.891,102.349 C78.142,103.402 86.05,107.242 92.73,113.593 L157.077,177.94 C160.676,181.295 163.014,185.541 165.067,189.932 L210.741,144.258 C218.972,136.123 230.454,131.898 242.056,133.014 C246.998,133.489 247.299,133.64 250,134.66 L250,212.554 C250,233.235 233.168,250 212.404,250 L46.596,250 C25.832,250 9,233.235 9,212.554 L9,142.169 L37.576,113.593 C44.002,107.244 52.373,103.219 61.415,102.349 L63.279,102.248 z" fill="#78909C"/>
      <path d="M46.596,9 L212.404,9 C233.168,9 250,25.765 250,46.446 L250,212.554 C250,233.235 233.168,250 212.404,250 L46.596,250 C25.832,250 9,233.235 9,212.554 L9,46.446 C9,25.765 25.832,9 46.596,9 z" fill-opacity="0" stroke="#78909C" stroke-width="10"/>
      <path d="M191.5,122 C175.208,122 162,108.792 162,92.5 C162,76.208 175.208,63 191.5,63 C207.792,63 221,76.208 221,92.5 C221,108.792 207.792,122 191.5,122 z" fill="#78909C"/>
    </g>
  </g>
</svg>
