<?xml version="1.0" encoding="UTF-8"?>
<!DOCTYPE svg PUBLIC "-//W3C//DTD SVG 1.1//EN" "http://www.w3.org/Graphics/SVG/1.1/DTD/svg11.dtd">
<svg version="1.1" xmlns="http://www.w3.org/2000/svg" xmlns:xlink="http://www.w3.org/1999/xlink" x="0" y="0" width="1800" height="900" viewBox="0, 0, 1800, 900">
  <g id="Layer_2">
    <path d="M1051.5,322 C1073.039,322 1090.5,339.461 1090.5,361 L1090.5,539 C1090.5,560.539 1073.039,578 1051.5,578 L748.5,578 C726.961,578 709.5,560.539 709.5,539 L709.5,361 C709.5,339.461 726.961,322 748.5,322 L1051.5,322 z M757,331 C735.461,331 718,348.461 718,370 L718,529.169 L808.076,439.093 C814.502,432.744 822.873,428.719 831.915,427.849 L833.779,427.748 C838.144,427.827 836.273,427.793 839.391,427.849 C848.642,428.902 856.55,432.742 863.23,439.093 L927.577,503.44 C931.176,506.795 933.514,511.041 935.567,515.432 L981.241,469.758 C996.471,454.528 1021.165,454.528 1036.395,469.758 L1082,515.363 L1082,370 C1082,348.461 1064.539,331 1043,331 L757,331 L757,331 z" fill="#78909C"/>
    <path d="M951.5,435 C935.208,435 922,421.792 922,405.5 C922,389.208 935.208,376 951.5,376 C967.792,376 981,389.208 981,405.5 C981,421.792 967.792,435 951.5,435 z" fill="#78909C"/>
  </g>
</svg>
