<?xml version="1.0" encoding="UTF-8"?>
<!DOCTYPE svg PUBLIC "-//W3C//DTD SVG 1.1//EN" "http://www.w3.org/Graphics/SVG/1.1/DTD/svg11.dtd">
<svg version="1.1" xmlns="http://www.w3.org/2000/svg" xmlns:xlink="http://www.w3.org/1999/xlink" x="0" y="0" width="1800" height="900" viewBox="0, 0, 1800, 900">
  <g id="Layer_2">
    <g>
      <path d="M833.779,422.748 C838.144,422.827 836.274,422.793 839.391,422.849 C848.642,423.902 856.55,427.742 863.23,434.093 L927.577,498.44 C931.176,501.795 933.514,506.041 935.567,510.432 L981.241,464.758 C989.472,456.623 1000.954,452.398 1012.556,453.514 C1017.498,453.989 1017.799,454.14 1020.5,455.16 L1020.5,533.054 C1020.5,553.735 1003.668,570.5 982.904,570.5 L817.096,570.5 C796.332,570.5 779.5,553.735 779.5,533.054 L779.5,462.669 L808.076,434.093 C814.502,427.744 822.873,423.719 831.915,422.849 L833.779,422.748 z" fill="#78909C"/>
      <path d="M817.096,329.5 L982.904,329.5 C1003.668,329.5 1020.5,346.265 1020.5,366.946 L1020.5,533.054 C1020.5,553.735 1003.668,570.5 982.904,570.5 L817.096,570.5 C796.332,570.5 779.5,553.735 779.5,533.054 L779.5,366.946 C779.5,346.265 796.332,329.5 817.096,329.5 z" fill-opacity="0" stroke="#78909C" stroke-width="10"/>
      <path d="M962,442.5 C945.708,442.5 932.5,429.292 932.5,413 C932.5,396.708 945.708,383.5 962,383.5 C978.292,383.5 991.5,396.708 991.5,413 C991.5,429.292 978.292,442.5 962,442.5 z" fill="#78909C"/>
    </g>
  </g>
</svg>
