<?xml version="1.0" encoding="UTF-8"?>
<!DOCTYPE svg PUBLIC "-//W3C//DTD SVG 1.1//EN" "http://www.w3.org/Graphics/SVG/1.1/DTD/svg11.dtd">
<svg version="1.1" xmlns="http://www.w3.org/2000/svg" xmlns:xlink="http://www.w3.org/1999/xlink" x="0" y="0" width="119" height="88" viewBox="0, 0, 119, 88">
  <g id="Layer_5">
    <path d="M76.531,8.301 C83.198,8.802 87.758,14.463 87.914,20.958 L87.914,52.112 C87.914,59.111 82.541,64.785 75.914,64.785 L43.414,64.785 C36.786,64.785 31.414,59.111 31.414,52.112 L31.414,20.958 C31.484,14.665 35.466,9.753 41.586,8.431" fill-opacity="0" stroke="#78909C" stroke-width="5"/>
    <g>
      <path d="M51.795,10.034 L67.849,9.964" fill-opacity="0" stroke="#78909C" stroke-width="5"/>
      <g>
        <path d="M51.891,12.428 C50.654,12.428 49.651,11.341 49.651,9.999 C49.651,8.657 50.654,7.57 51.891,7.57 C53.129,7.57 54.132,8.657 54.132,9.999 C54.132,11.341 53.129,12.428 51.891,12.428 z" fill="#78909C"/>
        <path d="M51.891,12.428 C50.654,12.428 49.651,11.341 49.651,9.999 C49.651,8.657 50.654,7.57 51.891,7.57 C53.129,7.57 54.132,8.657 54.132,9.999 C54.132,11.341 53.129,12.428 51.891,12.428 z" fill-opacity="0" stroke="#78909C" stroke-width="0.1"/>
      </g>
      <g>
        <path d="M67.436,12.428 C66.199,12.428 65.196,11.341 65.196,9.999 C65.196,8.657 66.199,7.57 67.436,7.57 C68.674,7.57 69.677,8.657 69.677,9.999 C69.677,11.341 68.674,12.428 67.436,12.428 z" fill="#78909C"/>
        <path d="M67.436,12.428 C66.199,12.428 65.196,11.341 65.196,9.999 C65.196,8.657 66.199,7.57 67.436,7.57 C68.674,7.57 69.677,8.657 69.677,9.999 C69.677,11.341 68.674,12.428 67.436,12.428 z" fill-opacity="0" stroke="#78909C" stroke-width="0.1"/>
      </g>
    </g>
    <g>
      <path d="M31.414,29.204 L87.914,29.134" fill-opacity="0" stroke="#78909C" stroke-width="5"/>
    </g>
  </g>
  <g id="Layer_2">
    <path d="M43.542,2.249 L43.448,17.749" fill-opacity="0" stroke="#78909C" stroke-width="5"/>
    <path d="M75.162,2.249 L75.068,17.749" fill-opacity="0" stroke="#78909C" stroke-width="5"/>
  </g>
  <g id="Layer_3">
    <path d="M75.683,19.651 C74.63,19.842 73.626,19.17 73.442,18.151 C73.257,17.132 73.962,16.152 75.015,15.961 C76.068,15.771 77.07,16.442 77.255,17.461 C77.439,18.48 76.735,19.461 75.683,19.651 z" fill="#78909C"/>
    <g>
      <path d="M75.116,19.681 C74.046,19.681 73.178,18.848 73.178,17.821 C73.178,16.793 74.046,15.961 75.116,15.961 C76.186,15.961 77.053,16.793 77.053,17.821 C77.053,18.848 76.186,19.681 75.116,19.681 z" fill="#78909C"/>
      <path d="M75.116,19.681 C74.046,19.681 73.178,18.848 73.178,17.821 C73.178,16.793 74.046,15.961 75.116,15.961 C76.186,15.961 77.053,16.793 77.053,17.821 C77.053,18.848 76.186,19.681 75.116,19.681 z" fill-opacity="0" stroke="#78909C" stroke-width="5"/>
    </g>
    <path d="M43.495,19.696 C42.425,19.696 41.557,18.856 41.557,17.821 C41.557,16.785 42.425,15.946 43.495,15.946 C44.565,15.946 45.433,16.785 45.433,17.821 C45.433,18.856 44.565,19.696 43.495,19.696 z" fill="#78909C"/>
    <g>
      <path d="M43.495,19.696 C42.425,19.696 41.557,18.856 41.557,17.821 C41.557,16.785 42.425,15.946 43.495,15.946 C44.565,15.946 45.433,16.785 45.433,17.821 C45.433,18.856 44.565,19.696 43.495,19.696 z" fill="#78909C"/>
      <path d="M43.495,19.696 C42.425,19.696 41.557,18.856 41.557,17.821 C41.557,16.785 42.425,15.946 43.495,15.946 C44.565,15.946 45.433,16.785 45.433,17.821 C45.433,18.856 44.565,19.696 43.495,19.696 z" fill-opacity="0" stroke="#78909C" stroke-width="5"/>
    </g>
    <path d="M46.197,45.715 L73.178,45.728" fill-opacity="0" stroke="#78909C" stroke-width="5"/>
    <g>
      <path d="M46.165,48.151 C44.928,48.151 43.925,47.063 43.925,45.722 C43.925,44.38 44.928,43.292 46.165,43.292 C47.403,43.292 48.406,44.38 48.406,45.722 C48.406,47.063 47.403,48.151 46.165,48.151 z" fill="#78909C"/>
      <path d="M46.165,48.151 C44.928,48.151 43.925,47.063 43.925,45.722 C43.925,44.38 44.928,43.292 46.165,43.292 C47.403,43.292 48.406,44.38 48.406,45.722 C48.406,47.063 47.403,48.151 46.165,48.151 z" fill-opacity="0" stroke="#78909C" stroke-width="0.1"/>
    </g>
    <g>
      <path d="M72.922,48.151 C71.684,48.151 70.681,47.063 70.681,45.722 C70.681,44.38 71.684,43.292 72.922,43.292 C74.159,43.292 75.162,44.38 75.162,45.722 C75.162,47.063 74.159,48.151 72.922,48.151 z" fill="#0D47A1"/>
      <path d="M72.922,48.151 C71.684,48.151 70.681,47.063 70.681,45.722 C70.681,44.38 71.684,43.292 72.922,43.292 C74.159,43.292 75.162,44.38 75.162,45.722 C75.162,47.063 74.159,48.151 72.922,48.151 z" fill-opacity="0" stroke="#0D47A1" stroke-width="0.1"/>
    </g>
    <path d="M61.746,51.876 L73.178,45.445" fill-opacity="0" stroke="#78909C" stroke-width="5"/>
    <path d="M61.366,39.031 L72.651,45.715" fill-opacity="0" stroke="#78909C" stroke-width="5"/>
    <g>
      <path d="M63.407,53.75 C62.394,54.459 60.932,54.12 60.142,52.993 C59.353,51.865 59.534,50.376 60.548,49.666 C61.561,48.956 63.023,49.295 63.813,50.423 C64.602,51.55 64.421,53.04 63.407,53.75 z" fill="#78909C"/>
      <path d="M63.407,53.75 C62.394,54.459 60.932,54.12 60.142,52.993 C59.353,51.865 59.534,50.376 60.548,49.666 C61.561,48.956 63.023,49.295 63.813,50.423 C64.602,51.55 64.421,53.04 63.407,53.75 z" fill-opacity="0" stroke="#78909C" stroke-width="0.1"/>
    </g>
    <g>
      <path d="M60.246,41.176 C59.232,40.466 59.048,38.98 59.834,37.857 C60.62,36.735 62.079,36.4 63.093,37.109 C64.107,37.819 64.291,39.305 63.505,40.428 C62.718,41.551 61.259,41.886 60.246,41.176 z" fill="#78909C"/>
      <path d="M60.246,41.176 C59.232,40.466 59.048,38.98 59.834,37.857 C60.62,36.735 62.079,36.4 63.093,37.109 C64.107,37.819 64.291,39.305 63.505,40.428 C62.718,41.551 61.259,41.886 60.246,41.176 z" fill-opacity="0" stroke="#78909C" stroke-width="0.1"/>
    </g>
    <path d="M6.162,80.531 L6.162,76.917 L8.222,76.917 Q8.678,76.917 9.1,76.985 Q9.522,77.052 9.843,77.247 Q10.164,77.441 10.358,77.795 Q10.553,78.15 10.553,78.724 Q10.553,79.299 10.358,79.653 Q10.164,80.008 9.843,80.202 Q9.522,80.396 9.1,80.464 Q8.678,80.531 8.222,80.531 z M3.51,74.857 L3.51,86.915 L6.162,86.915 L6.162,82.592 L8.948,82.592 Q10.08,82.592 10.873,82.262 Q11.667,81.933 12.165,81.393 Q12.664,80.852 12.892,80.151 Q13.12,79.451 13.12,78.724 Q13.12,77.981 12.892,77.289 Q12.664,76.596 12.165,76.056 Q11.667,75.516 10.873,75.186 Q10.08,74.857 8.948,74.857 z" fill="#78909C"/>
    <path d="M16.565,82.254 L18.135,77.829 L18.169,77.829 L19.689,82.254 z M16.818,74.857 L12.258,86.915 L14.927,86.915 L15.872,84.23 L20.382,84.23 L21.294,86.915 L24.046,86.915 L19.537,74.857 z" fill="#78909C"/>
    <path d="M26.9,82.913 L24.333,82.913 Q24.317,84.027 24.739,84.838 Q25.161,85.649 25.879,86.172 Q26.596,86.696 27.534,86.941 Q28.471,87.185 29.467,87.185 Q30.7,87.185 31.638,86.898 Q32.575,86.611 33.208,86.096 Q33.842,85.581 34.162,84.872 Q34.483,84.162 34.483,83.335 Q34.483,82.322 34.053,81.671 Q33.622,81.021 33.031,80.633 Q32.44,80.244 31.84,80.067 Q31.241,79.89 30.903,79.822 Q29.771,79.535 29.071,79.349 Q28.37,79.163 27.973,78.978 Q27.576,78.792 27.441,78.572 Q27.306,78.353 27.306,77.998 Q27.306,77.61 27.475,77.356 Q27.644,77.103 27.905,76.934 Q28.167,76.765 28.488,76.698 Q28.809,76.63 29.13,76.63 Q29.619,76.63 30.033,76.715 Q30.447,76.799 30.768,77.002 Q31.089,77.204 31.283,77.559 Q31.477,77.914 31.511,78.454 L34.078,78.454 Q34.078,77.407 33.681,76.672 Q33.284,75.938 32.609,75.465 Q31.933,74.992 31.063,74.781 Q30.194,74.57 29.248,74.57 Q28.437,74.57 27.627,74.789 Q26.816,75.009 26.174,75.465 Q25.533,75.921 25.136,76.605 Q24.739,77.289 24.739,78.218 Q24.739,79.045 25.051,79.628 Q25.364,80.211 25.87,80.599 Q26.377,80.987 27.019,81.232 Q27.66,81.477 28.336,81.646 Q28.995,81.832 29.636,81.984 Q30.278,82.136 30.785,82.338 Q31.291,82.541 31.604,82.845 Q31.916,83.149 31.916,83.639 Q31.916,84.095 31.68,84.39 Q31.443,84.686 31.089,84.855 Q30.734,85.024 30.329,85.083 Q29.923,85.142 29.569,85.142 Q29.045,85.142 28.556,85.015 Q28.066,84.889 27.703,84.627 Q27.34,84.365 27.12,83.943 Q26.9,83.521 26.9,82.913 z" fill="#78909C"/>
    <path d="M38.722,77.086 L38.722,86.915 L41.374,86.915 L41.374,77.086 L44.988,77.086 L44.988,74.857 L35.108,74.857 L35.108,77.086 z" fill="#78909C"/>
    <path d="M51.068,74.857 L51.068,86.915 L60.221,86.915 L60.221,84.686 L53.719,84.686 L53.719,81.73 L59.563,81.73 L59.563,79.67 L53.719,79.67 L53.719,77.086 L60.086,77.086 L60.086,74.857 z" fill="#78909C"/>
    <path d="M67.618,86.915 L71.621,74.857 L68.885,74.857 L66.166,83.335 L66.132,83.335 L63.447,74.857 L60.728,74.857 L64.629,86.915 z" fill="#78909C"/>
    <path d="M72.651,74.857 L72.651,86.915 L81.805,86.915 L81.805,84.686 L75.303,84.686 L75.303,81.73 L81.146,81.73 L81.146,79.67 L75.303,79.67 L75.303,77.086 L81.669,77.086 L81.669,74.857 z" fill="#78909C"/>
    <path d="M83.595,74.857 L83.595,86.915 L86.077,86.915 L86.077,78.843 L86.111,78.843 L91.127,86.915 L93.778,86.915 L93.778,74.857 L91.296,74.857 L91.296,82.946 L91.262,82.946 L86.229,74.857 z" fill="#78909C"/>
    <path d="M98.777,77.086 L98.777,86.915 L101.429,86.915 L101.429,77.086 L105.043,77.086 L105.043,74.857 L95.163,74.857 L95.163,77.086 z" fill="#78909C"/>
    <path d="M108.235,82.913 L105.668,82.913 Q105.651,84.027 106.073,84.838 Q106.495,85.649 107.213,86.172 Q107.931,86.696 108.868,86.941 Q109.806,87.185 110.802,87.185 Q112.035,87.185 112.972,86.898 Q113.909,86.611 114.543,86.096 Q115.176,85.581 115.497,84.872 Q115.818,84.162 115.818,83.335 Q115.818,82.322 115.387,81.671 Q114.957,81.021 114.365,80.633 Q113.774,80.244 113.175,80.067 Q112.575,79.89 112.237,79.822 Q111.106,79.535 110.405,79.349 Q109.704,79.163 109.307,78.978 Q108.91,78.792 108.775,78.572 Q108.64,78.353 108.64,77.998 Q108.64,77.61 108.809,77.356 Q108.978,77.103 109.24,76.934 Q109.502,76.765 109.822,76.698 Q110.143,76.63 110.464,76.63 Q110.954,76.63 111.368,76.715 Q111.781,76.799 112.102,77.002 Q112.423,77.204 112.617,77.559 Q112.812,77.914 112.845,78.454 L115.412,78.454 Q115.412,77.407 115.016,76.672 Q114.619,75.938 113.943,75.465 Q113.268,74.992 112.398,74.781 Q111.528,74.57 110.582,74.57 Q109.772,74.57 108.961,74.789 Q108.15,75.009 107.509,75.465 Q106.867,75.921 106.47,76.605 Q106.073,77.289 106.073,78.218 Q106.073,79.045 106.386,79.628 Q106.698,80.211 107.205,80.599 Q107.711,80.987 108.353,81.232 Q108.995,81.477 109.67,81.646 Q110.329,81.832 110.971,81.984 Q111.613,82.136 112.119,82.338 Q112.626,82.541 112.938,82.845 Q113.251,83.149 113.251,83.639 Q113.251,84.095 113.014,84.39 Q112.778,84.686 112.423,84.855 Q112.069,85.024 111.663,85.083 Q111.258,85.142 110.903,85.142 Q110.38,85.142 109.89,85.015 Q109.4,84.889 109.037,84.627 Q108.674,84.365 108.454,83.943 Q108.235,83.521 108.235,82.913 z" fill="#78909C"/>
    <g>
      <path d="M72.922,48.151 C71.684,48.151 70.681,47.063 70.681,45.722 C70.681,44.38 71.684,43.292 72.922,43.292 C74.159,43.292 75.162,44.38 75.162,45.722 C75.162,47.063 74.159,48.151 72.922,48.151 z" fill="#78909C"/>
      <path d="M72.922,48.151 C71.684,48.151 70.681,47.063 70.681,45.722 C70.681,44.38 71.684,43.292 72.922,43.292 C74.159,43.292 75.162,44.38 75.162,45.722 C75.162,47.063 74.159,48.151 72.922,48.151 z" fill-opacity="0" stroke="#78909C" stroke-width="0.1"/>
    </g>
  </g>
</svg>
